<svg width="500" height="500" viewBox="0 0 500 500" fill="none" xmlns="http://www.w3.org/2000/svg">
<g clip-path="url(#clip0_22_245)">
<path d="M550 -50H-50V550H550V-50Z" fill="white"/>
<path d="M550 -50H-50V550H550V-50Z" fill="#06343D"/>
<path fill-rule="evenodd" clip-rule="evenodd" d="M185.385 296.26C193.359 293.036 205.364 284.172 218.807 270.703C221.016 269.849 223.219 269.063 225.422 268.339C227.88 268.141 230.068 269.214 232.245 270.734C234.401 272.234 236.364 273.984 238.536 275.479C241.349 277.417 244.521 278.99 248.562 279.125C256.083 279.375 262.74 275.542 268.854 272.021C272.859 269.714 276.625 267.547 280.042 266.922C280.365 266.87 280.63 266.724 280.849 266.484C281.068 266.24 281.187 265.958 281.208 265.635C281.229 265.313 281.146 265.016 280.958 264.75C280.771 264.484 280.521 264.307 280.208 264.214C269.656 261.063 258.891 259.927 247.911 260.807C239.474 261.568 231.25 263.344 223.245 266.135C230.427 258.536 237.193 250.583 243.547 242.276C246.979 240.125 250.552 238.234 254.26 236.615C258.547 234.724 260.474 234.094 265.323 234.911C268.781 235.5 271.766 236.833 274.635 238.135C279.203 240.125 283.531 242.01 289.187 241.193C295.146 240.333 298.693 237.698 302.521 234.854C305.979 232.286 309.687 229.531 315.75 227.948C316.057 227.885 316.312 227.734 316.516 227.5C316.719 227.26 316.833 226.984 316.849 226.672C316.87 226.359 316.792 226.073 316.62 225.813C316.443 225.552 316.208 225.375 315.911 225.271C312.594 224.146 309.62 222.328 306.672 220.531C300.917 217.021 295.281 213.578 287.109 214.792C277.505 216.224 273.526 219.474 266.443 225.266C261.245 229.516 259.021 231.458 252.917 234.167C251.172 234.943 249.458 235.766 247.776 236.646C250.375 233.099 252.963 229.422 255.531 225.62C259.474 219.766 262.708 215.604 267.891 210.615C272.922 205.771 277.661 202.24 282.047 198.969C290.24 192.865 297.229 187.656 302.719 176.74C310.323 161.609 308.62 144.641 306.812 126.625C306.104 119.615 305.385 112.438 305.203 105.214C305.198 105.031 305.156 104.854 305.083 104.682C305.01 104.516 304.906 104.37 304.776 104.24C304.641 104.115 304.49 104.016 304.318 103.948C304.146 103.885 303.969 103.854 303.786 103.854C302.729 103.88 302.505 104.688 302.365 105.5C300.963 113.458 300.693 116.88 296.146 123.724C293.088 128.328 289.255 132.906 285.437 137.458C279.391 144.672 273.385 151.839 270.338 159.229C267.156 166.943 266.083 174.646 264.875 183.328C264 189.625 263.047 196.448 261.156 204.146C259.12 212.432 257.687 217.464 252.943 224.49C243.724 238.203 233.495 251.109 222.245 263.208C224.568 257.568 226.766 251.807 228.786 245.974C231.266 238.807 232.661 235.13 236.807 228.521C238.078 226.5 239.364 224.563 240.614 222.672C246.583 213.651 251.885 205.651 252.484 193.641C253.036 182.505 248.849 175.453 244.281 167.766C241.823 163.625 239.25 159.297 237.318 154.063C237.198 153.75 236.995 153.505 236.708 153.339C236.417 153.172 236.104 153.115 235.771 153.172C235.443 153.229 235.167 153.385 234.948 153.646C234.734 153.901 234.625 154.198 234.62 154.531C234.266 160.526 232.224 165.786 230.062 171.365C227.396 178.24 224.542 185.599 224.213 195.557C223.953 203.453 225.203 208.99 226.484 214.63C227.411 218.396 228.094 222.203 228.531 226.057C229.422 234.964 228.625 238.068 225.76 246.24C223.062 253.922 220.057 261.458 216.88 268.76C206.13 279.552 196.349 287.297 188.911 291.458C199.463 276.219 203.864 262.036 204.568 249.568C205.641 230.474 198.021 215.406 190.51 206.677C190.302 206.432 190.036 206.281 189.724 206.219C189.406 206.161 189.109 206.203 188.823 206.354C188.536 206.5 188.328 206.724 188.198 207.016C188.068 207.307 188.036 207.609 188.114 207.922C189.812 214.646 188.396 219.807 186.911 225.208C185.495 230.375 184.016 235.75 184.891 242.896C185.651 249.083 187.812 253.656 189.885 258.042C192.661 263.922 195.276 269.443 193.661 278.156C191.047 283.255 188.031 288.104 184.609 292.698C184.104 293.313 183.682 293.979 183.349 294.698C182.906 296.203 184.172 296.755 185.385 296.26ZM230.896 266.693C236.547 265.12 242.292 264.083 248.13 263.583C257.167 262.844 266.088 263.542 274.896 265.677C272.349 266.854 269.88 268.167 267.474 269.615C261.687 272.948 255.385 276.573 248.646 276.349C245.224 276.234 242.417 274.786 239.875 273.016C237.802 271.573 235.901 269.906 233.838 268.458C232.906 267.786 231.927 267.198 230.901 266.693H230.896ZM234.677 226.693C235.963 221.797 237.083 216.88 238.01 211.974C240.984 196.13 241.911 180.349 239.693 165.438C240.422 166.714 241.156 167.958 241.885 169.182C246.234 176.5 250.219 183.214 249.708 193.51C249.151 204.75 244.047 212.453 238.297 221.141C237.109 222.938 235.891 224.776 234.677 226.693ZM236.255 161.818C239.266 177.563 238.474 194.469 235.276 211.458C234.245 216.958 232.958 222.464 231.469 227.943C231.114 222.557 230.146 218.266 229.182 214.026C227.948 208.557 226.729 203.188 226.979 195.641C227.292 186.167 230.057 179.036 232.646 172.37C234.062 168.927 235.271 165.406 236.255 161.818ZM309.693 227.13C306.094 228.745 303.417 230.729 300.87 232.62C297.338 235.245 294.068 237.677 288.802 238.438C283.911 239.141 279.937 237.411 275.745 235.583C272.75 234.281 269.641 232.927 266 232.276C269.917 231.078 273.875 230.099 277.776 229.313C289.88 226.88 301.437 226.344 309.693 227.13ZM265.672 229.474C266.562 228.755 267.401 228.068 268.198 227.417C274.901 221.938 278.667 218.859 287.516 217.547C294.698 216.474 299.911 219.656 305.229 222.901C305.922 223.323 306.615 223.75 307.318 224.161C299.068 223.688 288.359 224.359 277.229 226.594C273.401 227.359 269.521 228.318 265.672 229.474ZM303.062 116.365C303.354 119.911 303.708 123.427 304.052 126.896C305.823 144.495 307.49 161.073 300.24 175.49C295.047 185.818 288.302 190.844 280.401 196.74C275.599 200.193 271.021 203.922 266.672 207.938C282.187 181.552 295.677 150.49 303.062 116.365ZM262.708 209.172C265.427 199.531 266.578 191.245 267.625 183.708C268.812 175.208 269.859 167.667 272.906 160.286C275.786 153.307 281.656 146.302 287.573 139.245C291.213 134.896 294.87 130.531 297.906 126.089C289.974 156.984 277.156 185.109 262.708 209.172ZM201.792 249.417C201.323 256.885 199.687 264.089 196.88 271.021C196.495 265.547 194.489 261.297 192.391 256.854C190.417 252.677 188.354 248.318 187.646 242.563C186.838 235.938 188.239 230.839 189.583 225.938C190.755 221.677 191.885 217.547 191.635 212.682C193.469 215.359 195.068 218.167 196.432 221.104C197.797 224.047 198.911 227.078 199.776 230.203C200.641 233.328 201.239 236.505 201.578 239.729C201.917 242.953 201.989 246.182 201.792 249.417Z" fill="#B99B69"/>
<path d="M113.674 317.331C113.674 325.029 118.585 329.842 124.564 329.842C127.351 329.842 130.137 328.524 132.064 325.488L130.241 322.951C129.835 324.774 128.059 328.071 124.97 328.071C120.413 328.071 118.538 322.243 118.538 317.331C118.538 310.946 121.731 307.701 125.122 307.602C128.924 307.503 133.028 311.503 133.028 319.607V323.259C133.028 325.686 133.075 327.665 133.939 329.842H138.799C138.09 327.915 137.887 326.196 137.887 323.66V298.029C137.887 295.493 138.09 293.774 138.799 291.847C136.569 291.847 134.345 291.847 132.116 291.847C132.872 293.774 133.028 295.493 133.028 298.029V310.842C131.252 307.144 127.757 305.019 124.111 305.019C117.523 305.019 113.674 311.248 113.674 317.331Z" fill="#B99B69"/>
<path d="M153.591 325.738C151.617 324.472 153.341 322.649 156.58 321.837C158.252 321.384 160.179 321.128 161.851 320.571C167.268 318.748 167.981 312.873 164.533 308.92C162.408 306.488 159.013 305.019 155.466 305.019C148.627 305.019 143.054 310.592 143.054 317.43C143.054 324.269 148.627 329.842 155.466 329.842C160.33 329.842 164.585 327.055 166.611 322.951L165.648 321.634C163.726 326.092 157.898 328.472 153.591 325.738ZM150.856 323.712C150.148 323.003 149.539 322.191 148.981 321.227C145.992 316.165 146.45 310.337 150.044 308.259C151.361 307.503 152.83 307.347 154.252 307.55C157.393 308.107 160.632 310.592 161.544 313.68C162.153 315.759 161.596 317.884 159.216 318.899C156.377 320.066 152.377 320.623 150.856 323.712Z" fill="#B99B69"/>
<path d="M171.017 311.654C171.116 317.43 182.011 319.154 187.48 322.092C190.673 323.816 192.345 326.701 187.48 327.816C186.011 328.17 184.34 328.118 183.225 327.915C180.032 327.357 176.996 325.535 174.511 323.509L171.017 328.373C174.36 329.134 179.428 329.842 183.933 329.842C190.064 329.842 193.715 326.852 193.662 323.206C193.558 316.972 180.944 315.456 175.98 312.061C173.194 310.134 173.548 307.857 177.147 307.045C178.616 306.691 180.287 306.743 181.454 306.946C184.642 307.503 187.683 309.326 190.168 311.352L193.662 306.488C190.319 305.727 185.199 305.019 180.746 305.019C174.616 305.019 170.965 308.009 171.017 311.654Z" fill="#B99B69"/>
<path d="M220.661 323.66C220.661 320.977 220.661 315.253 220.661 311.857C220.661 305.727 215.953 305.019 210.984 305.019C206.479 305.019 201.411 305.727 198.067 306.488L201.562 311.352C204.453 308.972 208.197 306.842 212.052 306.79C217.468 306.691 216.76 313.43 211.744 314.696C209.869 315.149 207.843 314.743 205.869 314.696C201.26 314.592 198.067 317.529 198.067 322.243C198.067 327.206 201.614 329.842 205.614 329.842C209.822 329.842 214.432 326.904 215.796 320.925V323.154C215.796 325.639 215.848 327.665 216.708 329.842H221.572C220.864 327.915 220.661 326.196 220.661 323.66ZM207.489 327.154C201.869 327.311 200.755 317.936 208.302 316.873C210.937 316.519 214.479 316.415 215.796 313.831C215.343 318.394 213.468 327.003 207.489 327.154Z" fill="#B99B69"/>
<path d="M243.303 311.654C243.402 317.43 254.298 319.154 259.767 322.092C262.959 323.816 264.631 326.701 259.767 327.816C258.298 328.17 256.626 328.118 255.511 327.915C252.319 327.357 249.282 325.535 246.798 323.509L243.303 328.373C246.647 329.134 251.714 329.842 256.22 329.842C262.35 329.842 266.001 326.852 265.949 323.206C265.845 316.972 253.23 315.456 248.267 312.061C245.48 310.134 245.834 307.857 249.433 307.045C250.902 306.691 252.574 306.743 253.741 306.946C256.928 307.503 259.97 309.326 262.454 311.352L265.949 306.488C262.605 305.727 257.485 305.019 253.032 305.019C246.902 305.019 243.251 308.009 243.303 311.654Z" fill="#B99B69"/>
<path d="M282.765 305.019C275.926 305.019 270.354 310.592 270.354 317.43C270.354 324.269 275.926 329.842 282.765 329.842C289.604 329.842 295.176 324.269 295.176 317.43C295.176 310.592 289.604 305.019 282.765 305.019ZM288.187 326.597C284.588 328.727 279.27 326.347 276.281 321.227C273.291 316.165 273.749 310.337 277.343 308.259C280.942 306.134 286.26 308.514 289.249 313.581C292.239 318.696 291.781 324.524 288.187 326.597Z" fill="#B99B69"/>
<path d="M299.38 305.019C300.088 306.894 300.291 308.618 300.291 311.201V323.66C300.291 326.196 300.088 327.915 299.38 329.842C301.609 329.842 303.838 329.842 306.067 329.842C305.307 327.915 305.156 326.196 305.156 323.66V311.555C305.156 311.451 305.156 311.3 305.156 311.149C306.775 310.238 309.156 309.019 311.286 308.311C315.036 307.097 318.02 307.503 318.02 312.363V323.66C318.02 326.196 317.822 327.915 317.109 329.842C319.338 329.842 321.567 329.842 323.796 329.842C323.088 327.915 322.885 326.196 322.885 323.66C322.885 320.014 322.885 315.201 322.885 311.352C322.885 307.144 320.604 305.019 316.453 305.019C312.447 305.019 308.296 307.3 305.104 309.274C305.052 307.805 304.802 306.436 304.244 305.019H299.38Z" fill="#B99B69"/>
<path d="M351.254 330.399C347.405 330.956 343.551 332.779 340.161 333.691C332.208 335.769 331.192 331.769 332.812 327.206C334.942 328.826 337.577 329.842 340.463 329.842C347.353 329.842 352.874 324.269 352.874 317.43C352.874 312.264 349.734 307.805 345.275 305.93C348.062 305.274 350.697 303.753 350.697 300.561H345.78C345.78 305.019 342.489 305.019 340.463 305.019C333.624 305.019 328.051 310.54 328.051 317.43C328.051 320.316 329.067 323.055 330.786 325.128C326.28 332.529 329.723 339.415 339.197 336.024C343.655 334.399 349.228 331.462 353.583 332.425C359.155 333.644 359.306 340.634 354.546 342.962C345.885 347.321 335.65 337.795 327.192 338.149C323.036 338.352 319.286 340.279 317.567 344.279L321.312 347.623C323.796 341.998 328.254 340.837 333.166 341.696C338.942 342.759 344.77 345.748 350.749 345.852C355.765 345.951 363.004 343.316 362.958 337.342C362.853 333.238 358.749 329.337 351.254 330.399ZM342.39 308.816C344.109 309.884 345.734 311.503 346.999 313.581C349.989 318.644 349.478 324.472 345.885 326.597C342.692 328.472 338.083 326.753 335.041 322.8C335.499 322.04 336.004 321.331 336.51 320.623C339.452 316.925 342.286 313.378 342.541 310.592C342.593 309.93 342.541 309.326 342.39 308.816ZM335.093 308.212C336.208 307.55 337.577 307.347 338.942 307.55C340.718 308.009 340.869 310.035 340.411 311.451C339.65 313.68 337.374 316.571 334.994 319.555C334.635 320.014 334.234 320.472 333.827 320.977C331.041 315.962 331.546 310.285 335.093 308.212Z" fill="#B99B69"/>
<path d="M369.691 305.019C362.853 305.019 357.28 310.592 357.28 317.43C357.28 324.269 362.853 329.842 369.691 329.842C376.53 329.842 382.103 324.269 382.103 317.43C382.103 310.592 376.53 305.019 369.691 305.019ZM375.113 326.597C371.514 328.727 366.196 326.347 363.207 321.227C360.217 316.165 360.676 310.337 364.269 308.259C367.868 306.134 373.186 308.514 376.176 313.581C379.165 318.696 378.707 324.524 375.113 326.597Z" fill="#B99B69"/>
<path d="M198.84 377.969H200.012V369.756H203.158V368.636H195.679V369.756H198.84V377.969Z" fill="#B99B69"/>
<path d="M209.622 377.969H210.742V374.438C210.742 372.917 211.664 371.943 212.966 371.943C214.169 371.943 214.914 372.798 214.914 374.183V377.969H216.034V374.079C216.034 372.105 214.94 370.876 213.117 370.876C212.221 370.876 211.341 371.209 210.742 371.959V368.105H209.622V377.969Z" fill="#B99B69"/>
<path d="M226.139 378.141C227.696 378.141 228.977 377.303 229.54 375.959H228.269C227.842 376.688 227.056 377.089 226.149 377.089C224.832 377.089 223.899 376.261 223.727 374.959H229.712C229.79 372.542 228.363 370.876 226.149 370.876C224.061 370.876 222.592 372.37 222.592 374.506C222.592 376.652 224.045 378.141 226.139 378.141ZM223.738 373.969C223.941 372.745 224.873 371.933 226.149 371.933C227.42 371.933 228.352 372.704 228.592 373.969H223.738Z" fill="#B99B69"/>
<path d="M248.722 378.141C251.587 378.141 253.519 375.969 253.467 372.902H248.399V374.021H252.202C251.957 375.782 250.629 376.969 248.748 376.969C246.655 376.969 245.176 375.464 245.176 373.303C245.176 371.146 246.639 369.636 248.733 369.636C250.176 369.636 251.321 370.344 251.905 371.542H253.186C252.587 369.704 250.827 368.464 248.691 368.464C245.962 368.464 243.972 370.506 243.972 373.303C243.972 376.115 245.972 378.141 248.722 378.141Z" fill="#B99B69"/>
<path d="M260.197 377.969H261.317V374.756C261.317 372.782 262.301 372.089 263.556 372.089H264.238V371.053H263.608C262.436 371.053 261.744 371.422 261.249 372.251L261.119 371.053H260.197V377.969Z" fill="#B99B69"/>
<path d="M273.768 378.141C275.325 378.141 276.607 377.303 277.169 375.959H275.898C275.471 376.688 274.685 377.089 273.778 377.089C272.461 377.089 271.528 376.261 271.357 374.959H277.341C277.419 372.542 275.992 370.876 273.778 370.876C271.69 370.876 270.221 372.37 270.221 374.506C270.221 376.652 271.674 378.141 273.768 378.141ZM271.367 373.969C271.57 372.745 272.502 371.933 273.778 371.933C275.049 371.933 275.982 372.704 276.221 373.969H271.367Z" fill="#B99B69"/>
<path d="M287.005 378.141C288.562 378.141 289.843 377.303 290.406 375.959H289.135C288.708 376.688 287.921 377.089 287.015 377.089C285.697 377.089 284.765 376.261 284.593 374.959H290.578C290.656 372.542 289.229 370.876 287.015 370.876C284.927 370.876 283.458 372.37 283.458 374.506C283.458 376.652 284.911 378.141 287.005 378.141ZM284.604 373.969C284.807 372.745 285.739 371.933 287.015 371.933C288.286 371.933 289.218 372.704 289.458 373.969H284.604Z" fill="#B99B69"/>
<path d="M297.241 377.969H298.361V374.475C298.361 372.959 299.283 371.943 300.575 371.943C301.788 371.943 302.533 372.824 302.533 374.225V377.969H303.653V374.115C303.653 372.146 302.559 370.876 300.721 370.876C299.788 370.876 298.882 371.24 298.283 372.063L298.163 371.053H297.241V377.969Z" fill="#B99B69"/>
<path d="M216.924 395.969H218.012L221.721 386.636H220.481L218.919 390.568L217.471 394.277L216.002 390.568L214.455 386.636H213.205L216.924 395.969Z" fill="#B99B69"/>
<path d="M227.945 395.969H229.065V389.053H227.945V395.969ZM227.596 387.037C227.596 387.532 227.961 387.907 228.508 387.907C229.05 387.907 229.399 387.532 229.399 387.037C229.399 386.532 229.05 386.157 228.508 386.157C227.961 386.157 227.596 386.532 227.596 387.037Z" fill="#B99B69"/>
<path d="M236.304 395.969H237.424V386.105H236.304V395.969Z" fill="#B99B69"/>
<path d="M244.663 395.969H245.782V386.105H244.663V395.969Z" fill="#B99B69"/>
<path d="M255.287 396.074C256.407 396.074 257.287 395.714 257.912 395.011L258.032 395.969H258.954V391.568C258.954 389.969 257.74 388.876 255.928 388.876C254.422 388.876 253.287 389.693 252.98 391.021H254.115C254.339 390.344 255.047 389.917 255.943 389.917C257.115 389.917 257.834 390.568 257.834 391.652V391.902H255.006C253.568 391.902 252.62 392.719 252.62 393.969C252.62 395.277 253.62 396.074 255.287 396.074ZM253.74 393.959C253.74 393.303 254.277 392.891 255.047 392.891H257.85C257.808 394.167 256.766 395.079 255.329 395.079C254.355 395.079 253.74 394.636 253.74 393.959Z" fill="#B99B69"/>
<path d="M269.139 398.808C271.201 398.808 272.55 397.527 272.55 395.568V389.053H271.628L271.508 389.985C270.899 389.292 269.993 388.876 268.951 388.876C266.977 388.876 265.498 390.37 265.498 392.386C265.498 394.412 266.977 395.902 268.951 395.902C269.951 395.902 270.816 395.516 271.43 394.876V395.532C271.43 396.954 270.592 397.771 269.139 397.771C268.003 397.771 267.217 397.251 267.003 396.407H265.873C266.123 397.891 267.378 398.808 269.139 398.808ZM266.618 392.386C266.618 390.969 267.644 389.959 269.071 389.959C270.508 389.959 271.524 390.969 271.524 392.386C271.524 393.808 270.508 394.808 269.071 394.808C267.644 394.808 266.618 393.808 266.618 392.386Z" fill="#B99B69"/>
<path d="M282.788 396.141C284.345 396.141 285.627 395.303 286.189 393.959H284.918C284.491 394.688 283.705 395.089 282.799 395.089C281.481 395.089 280.549 394.261 280.377 392.959H286.361C286.439 390.542 285.012 388.876 282.799 388.876C280.71 388.876 279.241 390.37 279.241 392.506C279.241 394.652 280.694 396.141 282.788 396.141ZM280.387 391.969C280.59 390.745 281.522 389.933 282.799 389.933C284.069 389.933 285.002 390.704 285.241 391.969H280.387Z" fill="#B99B69"/>
</g>
<defs>
<clipPath id="clip0_22_245">
<rect width="500" height="500" fill="white"/>
</clipPath>
</defs>
</svg>
